<svg width="14" height="20" viewBox="0 0 14 20" fill="none" xmlns="http://www.w3.org/2000/svg">
	<path d="M6.66928 19.6311L9.17791 15.2306H4.16064L6.66928 19.6311Z" fill="white" />
	<path d="M6.66998 10.4746C4.78348 10.4746 3.24881 8.92015 3.24881 7.00968C3.24881 5.09907 4.78348 3.54464 6.66998 3.54464C8.55647 3.54464 10.0911 5.09907 10.0911 7.00968C10.0911 8.92015 8.55647 10.4746 6.66998 10.4746ZM6.66998 0.381035C3.06106 0.381035 0.125 3.35463 0.125 7.00968C0.125 10.6646 3.06106 13.6382 6.66998 13.6382C10.2789 13.6382 13.215 10.6646 13.215 7.00968C13.215 3.35463 10.2789 0.381035 6.66998 0.381035Z" fill="white" />
</svg>
