<svg width="48" height="61" viewBox="0 0 48 61" fill="none" xmlns="http://www.w3.org/2000/svg">
	<g opacity="0.299247">
		<ellipse cx="24" cy="56.5" rx="11" ry="4.5" fill="url(#paint0_radial_4630_313568)" />
	</g>
	<rect x="48" y="-6.10352e-05" width="48" height="48" rx="24" transform="rotate(90 48 -6.10352e-05)" fill="#1988CF" />
	<rect x="47.5" y="0.499939" width="47" height="47" rx="23.5" transform="rotate(90 47.5 0.499939)" stroke="white" stroke-opacity="0.3" />
	<mask id="path-4-inside-1_4630_313568" fill="white">
		<path fill-rule="evenodd" clip-rule="evenodd" d="M40.9705 7.02944C31.5979 -2.34315 16.402 -2.34315 7.02938 7.02944C-2.34321 16.402 -2.34321 31.598 7.02938 40.9706C7.61409 41.5553 8.22148 42.1035 8.8487 42.6153C13.6793 46.5567 19.1507 50.1007 22.268 55.5C23.0378 56.8333 24.9623 56.8333 25.7321 55.5C28.8493 50.1007 34.3207 46.5566 39.1513 42.6152C39.7785 42.1034 40.3858 41.5552 40.9705 40.9706C50.3431 31.598 50.3431 16.402 40.9705 7.02944Z" />
	</mask>
	<path fill-rule="evenodd" clip-rule="evenodd" d="M40.9705 7.02944C31.5979 -2.34315 16.402 -2.34315 7.02938 7.02944C-2.34321 16.402 -2.34321 31.598 7.02938 40.9706C7.61409 41.5553 8.22148 42.1035 8.8487 42.6153C13.6793 46.5567 19.1507 50.1007 22.268 55.5C23.0378 56.8333 24.9623 56.8333 25.7321 55.5C28.8493 50.1007 34.3207 46.5566 39.1513 42.6152C39.7785 42.1034 40.3858 41.5552 40.9705 40.9706C50.3431 31.598 50.3431 16.402 40.9705 7.02944Z" fill="#1988cf" />
	<path d="M7.02938 7.02944L8.44359 8.44365L7.02938 7.02944ZM40.9705 7.02944L42.3847 5.61522L40.9705 7.02944ZM7.02938 40.9706L8.44359 39.5563L7.02938 40.9706ZM40.9705 40.9706L42.3847 42.3848L40.9705 40.9706ZM8.44359 8.44365C17.0351 -0.147883 30.9648 -0.147883 39.5563 8.44365L42.3847 5.61522C32.2311 -4.53841 15.7688 -4.53841 5.61516 5.61522L8.44359 8.44365ZM8.44359 39.5563C-0.147945 30.9648 -0.147944 17.0352 8.44359 8.44365L5.61516 5.61522C-4.53847 15.7689 -4.53847 32.2311 5.61516 42.3848L8.44359 39.5563ZM10.1131 41.0657C9.53796 40.5964 8.98059 40.0934 8.44359 39.5563L5.61516 42.3848C6.24759 43.0172 6.905 43.6106 7.58432 44.1649L10.1131 41.0657ZM20.5359 56.5C22.0755 59.1667 25.9245 59.1667 27.4641 56.5L24 54.5L20.5359 56.5ZM39.5563 39.5563C39.0193 40.0933 38.462 40.5963 37.8869 41.0655L40.4157 44.1648C41.095 43.6105 41.7523 43.0172 42.3847 42.3848L39.5563 39.5563ZM39.5563 8.44365C48.1478 17.0352 48.1478 30.9648 39.5563 39.5564L42.3847 42.3848C52.5383 32.2311 52.5383 15.7689 42.3847 5.61522L39.5563 8.44365ZM27.4641 56.5C28.8663 54.0714 30.8305 52.0039 33.1117 50.02C35.4682 47.9705 37.8557 46.2536 40.4157 44.1648L37.8869 41.0655C35.6163 42.9182 32.8528 44.944 30.4867 47.0018C28.0452 49.1251 25.7151 51.5293 24 54.5L27.4641 56.5ZM7.58432 44.1649C10.1443 46.2536 12.5318 47.9706 14.8884 50.0201C17.1695 52.0039 19.1337 54.0714 20.5359 56.5L24 54.5C22.2849 51.5294 19.9548 49.1252 17.5133 47.0018C15.1472 44.9441 12.3837 42.9183 10.1131 41.0657L7.58432 44.1649Z" fill="white" fill-opacity="0.3" mask="url(#path-4-inside-1_4630_313568)" />
	<defs>
		<radialGradient id="paint0_radial_4630_313568" cx="0" cy="0" r="1" gradientUnits="userSpaceOnUse" gradientTransform="translate(23.5547 56.1963) rotate(180) scale(6.16359 1.47645)">
			<stop />
			<stop offset="0.152238" stop-color="#24292F" />
			<stop offset="0.461888" stop-color="#131619" stop-opacity="0.532534" />
			<stop offset="1" stop-opacity="0.01" />
		</radialGradient>
	</defs>
</svg>
